#!OML:ASF I:\salsa\salsa 7_09\Patient 1\Session 1\dancermale.ASF
:FULLY-SPECIFIED
:DEGREES
1618
root -4.77593 17.2984 3.49008 1602.85 62.096 515.702
lowerback -0.892509 -0.361412 -10.0315
upperback 1.40513 -0.329349 5.35678
thorax 2.08779 -0.348358 11.4446
lowerneck 12.5137 -36.1062 3.49459
upperneck 5.15494 -1.71967 356.045
head 172.015 -71.5373 24.0137
rclavicle -1.78906e-014 -9.85972e-014
rhumerus 2.75337 -20.0084 -44.8845
rradius 56.2725
rwrist -15.8592
rhand -11.1111 -1.85445
rfingers 7.12502
rthumb 14.9135 -391.298
lclavicle -1.78906e-014 -9.85972e-014
lhumerus -46.6498 -30.108 119.515
lradius 122.608
lwrist 39.2025
lhand -15.7116 51.1325
lfingers 7.12502
lthumb 10.4783 -999.149
rfemur -26.4174 6.27262 -6.54067
rtibia 13.669
rfoot 7.30229 -34.3924
rtoes 17.4656
lfemur -5.73505 4.27591 -28.3502
ltibia 23.0512
lfoot -22.7675 -6.11657
ltoes 42.7324
1619
root -4.86571 17.2811 3.48702 1602.57 62.9914 515.259
lowerback -1.08958 -0.495883 -10.184
upperback 1.49417 -0.488302 5.4649
thorax 2.34195 -0.453037 11.6555
lowerneck 12.7752 -35.6293 3.17606
upperneck 5.14588 -1.39336 356.034
head 171.915 -71.6385 23.9965
rclavicle 2.98177e-014 -3.49861e-014
rhumerus -0.273812 -18.1003 -46.5083
rradius 59.7811
rwrist -16.1752
rhand -13.8519 -2.16167
rfingers 7.12502
rthumb 12.2719 -391.782
lclavicle 2.98177e-014 -3.49861e-014
lhumerus -46.649 -29.2202 119.926
lradius 122.408
lwrist 38.8004
lhand -16.1657 51.8107
lfingers 7.12502
lthumb 10.0403 -998.449
rfemur -29.425 2.25668 -4.52787
rtibia 20.1041
rfoot 6.71511 -28.3304
rtoes 9.71041
lfemur -6.51307 3.67292 -28.7392
ltibia 23.6213
lfoot -23.3123 -4.71476
ltoes 42.9677
1620
root -4.94983 17.2627 3.48986 1602.52 63.642 515.101
lowerback -1.21667 -0.700325 -10.2843
upperback 1.55414 -0.748452 5.58311
thorax 2.5551 -0.604313 11.8418
lowerneck 13.0134 -35.1688 2.97594
upperneck 5.16948 -0.749665 356.031
head 171.215 -72.0431 24.7029
rclavicle -4.53229e-014 -2.22639e-014
rhumerus -3.33922 -15.8906 -48.6108
rradius 63.2221
rwrist -15.9593
rhand -17.3712 -2.70439
rfingers 7.12502
rthumb 8.87713 -392.498
lclavicle -4.53229e-014 -2.22639e-014
lhumerus -46.5848 -28.5486 120.409
lradius 122.242
lwrist 38.4194
lhand -16.1235 52.2561
lfingers 7.12502
lthumb 10.081 -998.005
rfemur -32.2486 -0.670892 -2.64522
rtibia 26.4777
rfoot 4.41584 -25.1532
rtoes 5.10787
lfemur -7.3181 2.613 -29.1093
ltibia 24.2762
lfoot -23.972 -3.02282
ltoes 42.8285
1621
root -5.02778 17.2442 3.49773 1602.7 64.0454 515.24
lowerback -1.33726 -0.975809 -10.3097
upperback 1.66447 -1.10502 5.68837
thorax 2.84584 -0.810664 11.9621
lowerneck 13.2109 -34.7734 2.87965
upperneck 5.18107 -0.318857 356.043
head 170.962 -72.3158 24.9576
rclavicle 2.98177e-014 -2.8625e-014
rhumerus -6.53719 -13.4152 -51.3344
rradius 66.7457
rwrist -15.4411
rhand -21.158 -2.92168
rfingers 7.12502
rthumb 5.22181 -392.837
lclavicle 2.98177e-014 -2.8625e-014
lhumerus -46.4066 -28.1724 120.855
lradius 122.146
lwrist 38.1821
lhand -16.1399 52.4406
lfingers 7.12502
lthumb 10.0652 -997.82
rfemur -34.8263 -3.25355 -0.757408
rtibia 32.8462
rfoot 3.50747 -23.1887
rtoes -4.88703
lfemur -8.09013 1.22379 -29.413
ltibia 24.9969
lfoot -24.6378 -1.28403
ltoes 42.9946
1622
root -5.08966 17.2271 3.52343 1602.58 64.3405 515.309
lowerback -1.24859 -1.25096 -10.5864
upperback 1.85022 -1.47227 5.80694
thorax 3.11345 -1.03144 12.2502
lowerneck 13.3646 -34.3471 2.73562
upperneck 5.17971 0.0625475 356.058
head 170.708 -72.4838 25.1503
rclavicle -1.23246e-014 -2.8625e-014
rhumerus -9.82598 -10.2563 -54.4621
rradius 70.09
rwrist -14.9304
rhand -25.386 -3.19818
rfingers 7.12502
rthumb 1.13877 -393.175
lclavicle -1.23246e-014 -2.8625e-014
lhumerus -46.2031 -28.051 121.273
lradius 122.175
lwrist 38.2436
lhand -16.2546 52.2401
lfingers 7.12502
lthumb 9.95455 -998.015
rfemur -36.9051 -5.12748 0.981963
rtibia 39.3154
rfoot 2.03475 -22.132
rtoes -11.1861
lfemur -8.48264 0.22532 -29.584
ltibia 25.6071
lfoot -25.1067 0.0147766
ltoes 43.6092
1623
root -5.13633 17.2117 3.56675 1602.19 64.5601 515.332
lowerback -0.884713 -1.4512 -10.9985
upperback 2.04885 -1.76075 5.89075
thorax 3.22548 -1.20682 12.5893
lowerneck 13.6538 -34.1891 2.63497
upperneck 5.1328 -0.108046 356.009
head 172.227 -72.3638 23.7405
rclavicle 3.53837e-014 0
rhumerus -13.418 -6.77641 -58.0508
rradius 73.1964
rwrist -13.5538
rhand -30.3878 -4.05518
rfingers 7.12502
rthumb -3.69194 -394.003
lclavicle 3.53837e-014 0
lhumerus -46.1036 -28.2818 121.641
lradius 122.275
lwrist 38.6651
lhand -16.2867 52.155
lfingers 7.12502
lthumb 9.92357 -998.099
rfemur -38.4936 -6.49985 2.61741
rtibia 45.9505
rfoot 0.399501 -21.4752
rtoes -15.6383
lfemur -8.43873 -0.383745 -29.6106
ltibia 26.0112
lfoot -25.4254 0.954035
ltoes 44.2308
1624
root -5.17287 17.1947 3.61829 1601.7 64.7495 515.171
lowerback -0.517555 -1.58219 -11.4511
upperback 2.14855 -1.96178 5.91046
thorax 3.20691 -1.32534 12.8859
lowerneck 14.0982 -34.3089 2.57138
upperneck 5.05061 -0.841944 355.894
head 175.35 -71.9695 20.8838
rclavicle -5.12864e-014 -8.26944e-014
rhumerus -17.0849 -3.30675 -62.0604
rradius 75.9166
rwrist -12.858
rhand -34.8068 -5.25533
rfingers 7.12502
rthumb -7.9583 -395.086
lclavicle -5.12864e-014 -8.26944e-014
lhumerus -46.102 -28.8406 121.969
lradius 122.316
lwrist 39.2225
lhand -16.2492 52.0865
lfingers 7.12502
lthumb 9.95979 -998.169
rfemur -39.7793 -7.32139 3.88996
rtibia 52.1686
rfoot -1.51854 -21.1737
rtoes -15.3103
lfemur -8.36061 -0.77504 -29.618
ltibia 26.3037
lfoot -25.7466 1.59334
ltoes 44.7988
1625
root -5.19813 17.18 3.67607 1600.99 64.931 514.661
lowerback -0.367671 -1.65971 -12.0192
upperback 2.27284 -2.07002 5.89182
thorax 3.3169 -1.41163 13.2106
lowerneck 13.0443 -25.6582 4.97473
upperneck 8.05898 -46.4564 350.905
head 191.183 -36.1308 7.28636
rclavicle 4.96962e-014 6.04305e-014
rhumerus -20.5791 -0.144435 -66.4237
rradius 78.1011
rwrist -11.8579
rhand -38.477 -5.95887
rfingers 7.12502
rthumb -11.4993 -395.623
lclavicle 4.96962e-014 6.04305e-014
lhumerus -45.8559 -29.8098 122.143
lradius 122.267
lwrist 39.7011
lhand -16.3192 52.0033
lfingers 7.12502
lthumb 9.8922 -998.249
rfemur -40.8149 -7.75749 4.81276
rtibia 58.0367
rfoot -3.03092 -20.5461
rtoes -13.3469
lfemur -8.40384 -0.743639 -29.6629
ltibia 26.5948
lfoot -26.0266 1.9033
ltoes 45.0401
1626
root -5.21704 17.1689 3.73534 1600.27 65.1166 513.959
lowerback -0.472216 -1.6834 -12.5757
upperback 2.42335 -2.07789 5.87026
thorax 3.56982 -1.46084 13.525
lowerneck 12.8968 -25.5753 4.9735
upperneck 7.87389 -46.0694 351.068
head 191.352 -36.9336 7.03596
rclavicle 1.03368e-014 -3.49861e-014
rhumerus -23.7934 3.01877 -70.9023
rradius 79.9287
rwrist -11.4474
rhand -41.0946 -6.39872
rfingers 7.12502
rthumb -14.0228 -395.906
lclavicle 1.03368e-014 -3.49861e-014
lhumerus -45.1532 -31.1053 122.099
lradius 121.981
lwrist 39.9579
lhand -16.3746 52.0495
lfingers 7.12502
lthumb 9.83872 -998.2
rfemur -41.5552 -8.03847 5.47223
rtibia 63.157
rfoot -3.2776 -19.7178
rtoes -15.7322
lfemur -8.68425 -0.53253 -29.7477
ltibia 26.9458
lfoot -26.1954 2.25267
ltoes 44.8541
1627
root -5.22951 17.1585 3.79649 1599.84 65.2841 513.37
lowerback -0.69155 -1.66978 -12.9662
upperback 2.45314 -2.0284 5.83005
thorax 3.72909 -1.46304 13.7169
lowerneck 12.6867 -25.5946 5.01283
upperneck 7.77009 -45.9622 351.145
head 191.46 -37.3651 6.94455
rclavicle -2.82274e-014 0
rhumerus -26.9569 5.89944 -75.4828
rradius 81.3481
rwrist -10.0763
rhand -42.8974 -6.24458
rfingers 7.12502
rthumb -15.7596 -395.623
lclavicle -2.82274e-014 0
lhumerus -44.4016 -32.5305 121.95
lradius 121.57
lwrist 39.8791
lhand -16.4037 52.0697
lfingers 7.12502
lthumb 9.81066 -998.179
rfemur -42.0252 -8.25073 6.00687
rtibia 67.5615
rfoot -3.59622 -18.9731
rtoes -17.7055
lfemur -9.23461 -0.257749 -29.7337
ltibia 27.4214
lfoot -26.2973 2.51875
ltoes 44.5103
